# xmcd
#
# Track frame offsets:
# 150
# 9336
# 19551
# 29034
# 45060
# 56761
# 70992
# 84357
# 97039
# 105891
# 115768
#
# Disc length: 1633 seconds
#
# Revision: 0
# Processed by: cddbd v1.4PL0 Copyright (c) Steve Scherf et al.
# Submitted via: Audion 3.0.2 (http://www.panic.com/audion/)
#
DISCID=79065f0b
DTITLE=Doc and Merle Watson - Then and Now
DYEAR=1900
DGENRE=
TTITLE0=Bonaparte's Retreat
TTITLE1=Milkcow Blues
TTITLE2=Bottle Of Wine
TTITLE3=Match Box Blues
TTITLE4=If I Needed You
TTITLE5=Frankie and Johnny
TTITLE6=That's All
TTITLE7=Corrina, Corrina
TTITLE8=Meet Me Somewhere In Your Dreams
TTITLE9=Old Camp Meetin' Time
TTITLE10=Rain Crow Bill
EXTD=
EXTT0=
EXTT1=
EXTT2=
EXTT3=
EXTT4=
EXTT5=
EXTT6=
EXTT7=
EXTT8=
EXTT9=
EXTT10=
PLAYORDER=
